<?xml version="1.0" standalone="no"?>
<!DOCTYPE svg PUBLIC "-//W3C//DTD SVG 20010904//EN"
 "http://www.w3.org/TR/2001/REC-SVG-20010904/DTD/svg10.dtd">
<svg version="1.0" xmlns="http://www.w3.org/2000/svg"
 width="1680.000000pt" height="1680.000000pt" viewBox="0 0 1680.000000 1680.000000"
 preserveAspectRatio="xMidYMid meet">
<metadata>
Created by potrace 1.14, written by Peter Selinger 2001-2017
</metadata>
<g transform="translate(0.000000,1680.000000) scale(0.100000,-0.100000)"
fill="#000000" stroke="none">
<path d="M11400 11178 c0 -11 -526 -13 -3007 -13 -3007 0 -3007 0 -3013 -20
-5 -20 -11 -20 -912 -20 l-908 0 -36 -70 c-20 -38 -43 -77 -50 -86 -8 -8 -14
-23 -14 -31 0 -9 -3 -18 -7 -20 -8 -3 -20 -23 -91 -158 -24 -47 -50 -92 -57
-100 -6 -8 -17 -29 -24 -47 -7 -18 -19 -38 -27 -44 -8 -6 -14 -20 -14 -30 0
-11 -4 -19 -10 -19 -5 0 -10 -5 -10 -10 0 -9 -123 -238 -150 -280 -6 -8 -25
-44 -44 -80 -62 -121 -139 -255 -150 -262 -6 -4 -7 -8 -3 -8 5 0 0 -15 -11
-32 -41 -67 -282 -511 -282 -519 0 -5 -4 -9 -10 -9 -5 0 -10 -4 -10 -10 0 -5
-31 -67 -70 -136 -38 -70 -70 -131 -70 -136 0 -4 -5 -8 -12 -8 -6 0 -9 -3 -5
-6 3 -3 -8 -28 -24 -55 -16 -28 -44 -78 -63 -112 -18 -34 -45 -82 -59 -107
-31 -57 -129 -235 -175 -320 -19 -36 -46 -85 -60 -110 -47 -83 -75 -135 -120
-220 -25 -47 -48 -87 -51 -90 -4 -3 -15 -25 -26 -49 -11 -24 -24 -49 -30 -55
-5 -6 -23 -36 -39 -66 -85 -162 -99 -186 -109 -192 -7 -4 -8 -8 -4 -8 5 0 0
-15 -11 -32 -11 -18 -37 -64 -57 -103 -21 -38 -45 -78 -53 -87 -8 -10 -12 -18
-7 -18 4 0 3 -6 -2 -12 -6 -7 -24 -38 -40 -68 -17 -30 -65 -118 -108 -195 -43
-77 -100 -183 -128 -235 -28 -52 -54 -96 -59 -98 -4 -2 -8 -8 -8 -14 0 -6 -30
-65 -67 -132 -36 -66 -77 -141 -91 -166 -14 -25 -28 -49 -32 -55 -4 -5 -33
-59 -65 -120 -32 -60 -63 -117 -69 -125 -6 -8 -24 -42 -41 -75 -16 -33 -33
-62 -36 -65 -3 -3 -11 -20 -18 -37 -8 -18 -17 -33 -22 -33 -5 0 -9 -9 -9 -19
0 -11 -3 -21 -7 -23 -5 -1 -21 -28 -37 -58 -16 -30 -62 -113 -101 -185 -40
-71 -91 -165 -114 -209 -23 -43 -53 -96 -67 -117 -13 -21 -24 -41 -24 -44 0
-3 -49 -94 -109 -202 -60 -109 -110 -202 -111 -208 -1 -5 -7 -17 -14 -25 -8
-8 -35 -55 -61 -105 -26 -49 -54 -99 -61 -110 -15 -20 -20 -114 -6 -116 4 0
372 -1 819 -2 l811 -2 24 45 c12 25 26 47 31 48 4 2 7 12 7 22 0 10 3 20 8 22
4 2 27 41 51 88 24 47 61 117 82 156 21 39 59 111 84 160 26 49 73 139 106
199 32 61 64 122 70 138 6 15 15 27 20 27 5 0 9 6 9 14 0 13 29 75 40 86 3 3
23 40 44 83 22 43 43 80 48 83 4 3 6 10 3 15 -4 5 2 10 12 10 10 1 586 2 1281
3 1256 1 1263 1 1267 -19 8 -39 18 -100 21 -120 2 -23 10 -74 20 -130 7 -43 8
-55 18 -130 4 -27 11 -72 16 -100 5 -27 11 -68 14 -90 3 -22 8 -56 11 -75 3
-19 10 -66 16 -105 13 -89 18 -114 24 -145 3 -14 7 -45 11 -70 3 -25 8 -61 10
-80 3 -19 7 -48 9 -65 2 -16 5 -31 6 -32 2 -3 6 -18 8 -30 1 -6 1501 -9 1554
-4 8 1 5 29 -8 116 -2 11 -9 45 -15 75 -7 30 -13 69 -15 85 -1 17 -4 30 -5 30
-1 0 -3 16 -6 35 -4 37 -6 50 -24 145 -6 33 -13 74 -15 90 -3 17 -7 41 -10 55
-7 35 -11 57 -19 113 -4 27 -9 59 -12 70 -2 12 -8 48 -14 79 -6 32 -12 70 -15
85 -3 16 -8 44 -11 63 -3 19 -7 46 -10 60 -2 14 -7 41 -9 60 -3 19 -8 46 -11
60 -6 27 -10 46 -18 100 -3 19 -12 71 -19 115 -8 44 -15 87 -15 95 -1 8 -8 51
-17 95 -9 44 -17 91 -19 105 -4 28 -13 80 -21 125 -8 43 -12 65 -20 110 -10
63 -16 96 -26 155 -6 30 -14 80 -19 110 -4 30 -11 66 -14 80 -3 14 -7 39 -10
55 -2 17 -11 73 -21 125 -25 147 -26 153 -30 180 -2 14 -6 36 -9 50 -8 33 -16
78 -21 115 -2 17 -9 55 -14 85 -6 30 -13 76 -15 103 -3 26 -7 51 -10 56 -3 5
-8 26 -11 47 -3 22 -8 55 -11 74 -4 19 -8 44 -10 55 -2 11 -5 35 -8 53 -3 17
-8 44 -10 60 -3 15 -9 52 -15 82 -5 30 -12 69 -15 85 -2 17 -11 68 -20 115
-15 85 -25 147 -31 185 -3 21 -12 64 -20 105 -3 14 -7 43 -10 65 -3 22 -12 76
-20 120 -8 44 -17 94 -19 110 -3 17 -7 41 -10 55 -5 28 -16 93 -21 127 -2 12
-6 35 -10 52 -3 16 -8 42 -10 58 -11 74 -14 90 -19 113 -5 23 -14 77 -21 126
-2 11 -8 45 -14 75 -5 30 -13 72 -16 93 -3 21 -8 48 -10 60 -3 12 -8 39 -11
61 -3 22 -7 49 -9 60 -2 11 -6 38 -10 60 -3 22 -8 46 -11 53 -2 8 -7 35 -10
61 l-6 48 1040 0 1040 0 1 -78 c0 -43 1 -82 2 -86 1 -5 1 -12 0 -18 -5 -26 -2
-125 4 -134 3 -6 2 -11 -3 -11 -5 0 -6 -20 -2 -45 4 -25 5 -47 2 -50 -7 -7 -5
-122 3 -134 3 -6 2 -11 -3 -11 -5 0 -6 -20 -2 -45 4 -25 5 -47 3 -49 -7 -7 -5
-284 2 -296 3 -5 2 -10 -3 -10 -5 0 -6 -20 -2 -45 4 -25 5 -47 2 -50 -7 -7 -5
-122 3 -134 3 -6 2 -11 -3 -11 -5 0 -6 -20 -2 -45 4 -25 5 -47 2 -50 -7 -7 -5
-122 3 -134 3 -6 2 -11 -3 -11 -5 0 -6 -20 -2 -45 4 -25 5 -47 2 -50 -7 -7 -5
-122 3 -134 3 -6 2 -11 -3 -11 -5 0 -6 -20 -2 -45 4 -25 5 -47 2 -50 -7 -7 -5
-122 3 -134 3 -6 2 -11 -3 -11 -5 0 -6 -20 -2 -45 4 -25 5 -47 2 -50 -7 -7 -5
-122 3 -134 3 -6 2 -11 -3 -11 -5 0 -6 -20 -2 -45 4 -25 5 -47 2 -50 -7 -7 -5
-122 3 -134 3 -6 2 -11 -3 -11 -5 0 -6 -20 -2 -45 4 -25 5 -47 2 -50 -7 -7 -5
-122 3 -134 3 -6 2 -11 -3 -11 -5 0 -6 -20 -2 -45 4 -25 5 -47 2 -50 -7 -7 -5
-122 3 -134 3 -6 2 -11 -3 -11 -5 0 -6 -20 -2 -45 4 -25 5 -47 2 -50 -7 -7 -5
-122 3 -134 3 -6 2 -11 -3 -11 -5 0 -6 -20 -2 -45 4 -25 4 -47 1 -49 -3 -2 -4
-57 -1 -121 3 -64 3 -118 1 -121 -6 -6 -3 -122 4 -133 3 -6 2 -11 -3 -11 -5 0
-6 -20 -2 -45 4 -25 5 -47 2 -50 -7 -7 -5 -122 3 -134 3 -6 2 -11 -3 -11 -5 0
-6 -20 -2 -45 4 -25 5 -47 2 -50 -7 -7 -5 -122 3 -134 3 -6 2 -11 -3 -11 -5 0
-6 -20 -2 -45 4 -25 5 -47 2 -50 -7 -7 -5 -122 3 -134 3 -6 2 -11 -3 -11 -5 0
-6 -20 -2 -45 4 -25 5 -47 2 -50 -7 -7 -5 -122 3 -134 3 -6 2 -11 -3 -11 -5 0
-6 -20 -2 -45 4 -25 5 -47 2 -50 -7 -7 -5 -122 3 -134 3 -6 2 -11 -3 -11 -5 0
-6 -20 -2 -45 4 -25 5 -47 2 -50 -7 -7 -5 -122 3 -134 3 -6 2 -11 -3 -11 -5 0
-6 -20 -2 -45 4 -25 5 -47 2 -50 -7 -7 -5 -125 3 -133 7 -7 1791 -11 1813 -4
9 3 12 540 12 2641 l0 2638 910 0 c566 0 913 -3 916 -9 4 -5 6 -1215 6 -2689
0 -2466 2 -2679 17 -2680 9 0 680 -1 1491 0 1250 0 1665 3 1665 12 0 0 20 2
45 3 51 3 170 15 215 21 55 8 106 15 153 21 25 3 48 7 52 9 5 3 69 14 110 20
8 1 24 4 35 8 11 3 31 8 45 11 28 6 47 10 105 24 61 15 232 70 254 81 10 6 21
7 25 4 3 -3 6 -1 6 5 0 7 8 12 17 12 46 0 439 218 451 251 2 5 7 9 12 9 23 0
181 156 258 255 34 44 66 85 70 90 4 6 11 17 15 25 4 8 18 33 32 55 20 35 55
100 60 115 1 3 12 28 24 55 50 110 110 325 127 455 3 30 8 66 10 80 22 157 15
535 -13 665 -2 11 -8 44 -13 72 -28 162 -106 374 -200 538 -21 37 -79 124 -90
135 -3 3 -18 23 -35 45 -44 59 -172 185 -240 236 -101 76 -156 110 -256 158
-106 51 -137 64 -234 96 -15 4 6 19 90 61 116 59 219 125 273 174 18 16 35 30
37 30 4 0 89 87 126 130 94 109 235 384 242 472 1 10 4 18 7 18 4 0 7 6 7 13
0 6 5 37 12 68 29 137 34 189 34 374 0 187 -9 316 -29 408 -6 31 -10 53 -19
105 -2 19 -7 38 -10 43 -4 5 -8 19 -11 31 -6 29 -9 38 -18 63 -5 11 -12 31
-16 45 -4 14 -12 34 -16 45 -4 11 -8 22 -9 25 -8 26 -71 150 -101 196 -164
260 -381 435 -709 572 -93 39 -235 85 -330 108 -82 20 -192 43 -230 49 -16 3
-41 8 -55 10 -14 3 -43 8 -64 10 -22 3 -51 7 -65 10 -24 4 -53 7 -181 21 -25
3 -72 7 -105 9 -33 3 -87 8 -120 11 -33 4 -711 8 -1507 11 -1194 4 -1448 2
-1448 -9z m2770 -1172 c41 -10 73 -16 110 -22 42 -7 149 -49 206 -81 81 -46
192 -167 231 -253 21 -47 40 -105 46 -140 4 -19 9 -51 13 -70 15 -81 6 -265
-17 -354 -16 -64 -42 -130 -53 -138 -6 -4 -8 -8 -3 -8 10 0 -59 -97 -97 -136
-49 -50 -125 -98 -208 -132 -43 -18 -81 -32 -85 -31 -4 1 -11 0 -15 -1 -5 -1
-12 -4 -18 -5 -5 -1 -11 -3 -12 -5 -5 -3 -40 -9 -98 -17 -30 -4 -291 -7 -580
-8 l-525 0 -1 700 c0 385 1 703 2 706 4 7 1071 3 1104 -5z m-9935 -601 c3 -22
8 -56 11 -75 2 -19 9 -60 14 -90 5 -30 12 -75 15 -100 3 -25 9 -58 12 -75 4
-16 8 -46 9 -65 1 -19 3 -35 4 -35 1 0 3 -12 5 -26 3 -25 9 -63 19 -119 3 -14
7 -45 11 -70 17 -121 23 -166 30 -200 2 -14 7 -43 10 -65 3 -22 7 -53 10 -70
3 -16 7 -46 10 -65 2 -19 6 -44 9 -55 2 -11 7 -42 10 -70 4 -27 9 -61 11 -75
3 -14 7 -41 10 -60 2 -19 7 -46 9 -59 3 -13 8 -47 10 -75 3 -29 7 -59 10 -67
5 -13 14 -70 21 -134 2 -16 4 -30 5 -30 1 0 3 -13 5 -30 2 -16 6 -43 9 -60 2
-16 7 -48 10 -70 12 -90 17 -122 26 -170 6 -27 12 -70 15 -95 2 -25 7 -57 10
-72 11 -55 44 -283 41 -285 -5 -5 -1698 -4 -1703 1 -4 4 28 78 38 86 3 3 19
32 35 65 16 33 31 62 34 65 3 3 28 50 55 105 28 55 52 102 55 105 6 6 23 38
113 215 33 66 63 122 66 125 4 3 25 43 49 90 23 47 68 135 100 195 32 61 90
171 129 245 39 74 92 176 118 225 27 50 59 113 73 140 14 28 30 53 36 57 6 4
7 8 2 8 -5 0 -4 6 2 13 5 6 31 54 58 106 27 52 69 133 94 180 26 47 72 138
105 201 32 63 67 127 78 143 10 15 15 27 11 27 -4 0 1 9 11 20 10 11 14 20 10
20 -4 0 -1 8 7 18 9 9 19 28 23 41 9 30 22 16 30 -34z m10045 -1988 c43 -6 64
-10 120 -23 14 -3 34 -7 45 -9 79 -13 260 -98 324 -152 76 -65 96 -87 133
-139 33 -47 90 -155 94 -179 1 -5 9 -35 17 -65 37 -129 42 -366 12 -541 -11
-59 -60 -188 -91 -237 -19 -29 -34 -55 -34 -57 0 -3 -24 -30 -52 -61 -59 -63
-151 -131 -215 -159 -24 -10 -43 -23 -43 -28 0 -6 -3 -8 -6 -4 -4 3 -23 0 -43
-8 -44 -17 -153 -45 -195 -50 -17 -2 -41 -6 -54 -9 -67 -15 -432 -26 -432 -13
0 5 -5 5 -11 2 -5 -4 -40 -6 -77 -6 -37 1 -83 2 -102 1 -353 -4 -450 -4 -450
3 0 5 -5 5 -11 1 -14 -9 -128 -8 -137 1 -7 7 -11 1724 -4 1738 5 10 1143 3
1212 -6z"/>
</g>
</svg>
